<svg width="50" height="38" viewBox="0 0 50 38" fill="none" xmlns="http://www.w3.org/2000/svg">
<path d="M10.1434 18.6859C9.86504 18.4059 9.41055 18.4029 9.12832 18.6794C8.06343 19.7228 8.28259 21.05 8.57994 21.6699C8.75086 22.0283 9.18765 22.1783 9.53841 22.0105C9.89634 21.8413 10.05 21.4198 9.87959 21.0645C9.84379 20.985 9.54711 20.2712 10.1368 19.6935C10.419 19.417 10.4218 18.966 10.1434 18.6859Z" fill="#EFC101"/>
<path d="M19.5652 12.2232C19.202 12.381 19.0365 12.8011 19.1953 13.1615C19.3543 13.5221 19.7777 13.6864 20.1407 13.5287C20.1484 13.5253 20.9182 13.2012 21.5055 13.831C21.7754 14.1202 22.2296 14.1366 22.5199 13.8699C22.8108 13.6025 22.8282 13.1518 22.559 12.863C21.5424 11.773 20.1987 11.948 19.5652 12.2232Z" fill="#EFC101"/>
<path d="M13.4893 16.5069C13.7581 16.5069 14.0147 16.3567 14.1361 16.0984C14.175 16.0204 14.5408 15.3388 15.3651 15.4226C15.7601 15.4635 16.1119 15.1777 16.1522 14.7863C16.1925 14.3949 15.9055 14.0451 15.5111 14.0051C14.0228 13.8536 13.1308 14.8666 12.8384 15.4888C12.6709 15.8454 12.8246 16.273 13.1838 16.4393C13.283 16.4851 13.387 16.5069 13.4893 16.5069Z" fill="#EFC101"/>
<path d="M21.4614 20.4166C21.1602 20.6725 21.1251 21.1223 21.3828 21.4212C21.6415 21.7212 22.0951 21.7541 22.3949 21.4992C23.5316 20.5333 23.4078 19.1939 23.1554 18.5547C23.0107 18.1884 22.5927 18.004 22.2237 18.1476C21.8545 18.2913 21.6712 18.7007 21.8159 19.0672C21.8458 19.1489 22.0909 19.8818 21.4614 20.4166Z" fill="#EFC101"/>
<path d="M49.2481 23.0643C48.9985 22.7207 48.5948 22.5156 48.1682 22.5156H46.0273C46.041 22.2372 46.0111 21.9568 45.9367 21.6821C45.7676 21.0547 45.3878 20.5229 44.8642 20.1619C45.2393 19.1651 45.1547 18.0365 44.6109 17.1022C44.0706 16.1734 43.1342 15.5374 42.0798 15.3574C42.0222 14.7348 41.7489 14.15 41.2923 13.6968C40.8328 13.2406 40.2395 12.9693 39.6069 12.9148C39.4308 11.864 38.7887 10.9271 37.8456 10.387C36.9307 9.86256 35.851 9.76347 34.8681 10.097C34.5708 9.71407 34.1734 9.41672 33.7187 9.23518L33.8893 9.09249C34.5647 8.5278 35.3901 8.23425 36.2144 8.26522C36.9854 8.29486 37.6762 8.07275 38.2124 7.62425C38.952 7.0059 39.3039 6.04696 39.2034 4.92405C39.1113 3.89472 38.6411 2.83366 37.8795 1.93619C36.5552 0.307408 33.9626 -0.743867 32.2886 0.644565C31.7523 1.09297 31.4149 1.73118 31.3129 2.49024C31.204 3.30154 30.7721 4.05926 30.0969 4.62395L24.9376 8.93801C23.7759 8.42045 22.3989 8.14391 20.843 8.12804C20.5981 8.12557 20.2451 8.07522 19.9534 7.8495C18.8082 6.96334 17.0054 6.96675 15.4673 7.85805C14.9416 8.16272 14.4885 8.54471 14.1204 8.99331C14.0053 9.13362 13.8312 9.20345 13.6421 9.18388C12.7181 9.08992 11.7219 9.3203 10.8375 9.83273C9.89289 10.3802 9.17827 11.1831 8.82532 12.0934C8.71641 12.3742 8.5162 12.6418 8.23962 12.8728C8.01797 13.0582 7.8013 13.2485 7.59554 13.4386C7.30527 13.7066 7.2889 14.1574 7.55898 14.4455C7.82896 14.7336 8.28316 14.7498 8.57343 14.4818C8.76206 14.3076 8.96093 14.1329 9.15799 13.968C9.16009 13.9663 9.16842 13.9594 9.17052 13.9577C9.62549 13.5777 9.96945 13.1101 10.1652 12.6052C10.398 12.0046 10.9069 11.4427 11.5614 11.0634C12.1849 10.702 12.8717 10.5379 13.4957 10.6015C14.1642 10.6693 14.814 10.4046 15.2337 9.89305C15.4926 9.57746 15.8147 9.30681 16.1912 9.08869C17.2107 8.49778 18.395 8.45038 19.0708 8.97335C19.5521 9.34576 20.1598 9.54621 20.8283 9.55295C25.6618 9.52901 28.2621 12.6019 27.4189 17.318C27.3121 17.9729 27.4078 18.6015 27.6959 19.1357C28.1004 19.8856 27.8523 21.0359 27.0925 21.9328C26.91 22.1482 26.7061 22.3399 26.4865 22.5028C26.481 22.5067 26.4763 22.5113 26.4711 22.5155H5.13884C4.89479 20.5761 5.38412 18.6106 6.5652 16.8145C7.05701 16.0066 5.90953 15.264 5.36297 16.0357C4.0283 18.0654 3.45523 20.2958 3.6919 22.5155H1.83181C1.40536 22.5155 1.00159 22.7206 0.7519 23.0642C0.501732 23.4084 0.432922 23.8543 0.567863 24.2571L4.86522 37.094C5.04667 37.6359 5.55457 37.9999 6.12927 37.9999H36.4954C37.4458 37.9672 37.4452 36.6073 36.4954 36.575H6.2042L1.97451 23.9406H15.4083C16.6056 35.6422 33.3986 35.6335 34.5917 23.9406H48.0254L43.7956 36.5751H39.9301C38.9797 36.6078 38.9803 37.9677 39.9301 38H43.8707C44.4454 38 44.9534 37.636 45.1346 37.0941L49.4321 24.2572C49.5671 23.8545 49.4983 23.4085 49.2481 23.0643ZM26.2565 9.69831L31.0216 5.71389C31.9706 4.92016 32.5795 3.84219 32.7358 2.67862C32.7734 2.39856 32.8867 2.00754 33.2133 1.73451C33.7142 1.31565 34.4032 1.41483 34.7695 1.51125C35.4934 1.70183 36.2078 2.17892 36.7812 2.85447C37.3546 3.53011 37.7069 4.30997 37.7732 5.0504C37.8068 5.42499 37.7882 6.11584 37.2873 6.53479C36.9608 6.80772 36.5531 6.85237 36.2689 6.84154C35.0861 6.7968 33.9134 7.20929 32.9643 8.00292L28.2 11.9867C27.9706 11.5314 27.6928 11.1093 27.366 10.7242C27.0401 10.3404 26.668 9.99936 26.2565 9.69831ZM28.9613 18.4633C28.7867 18.1395 28.7967 17.7857 28.8357 17.5458C29.0839 16.0232 29.0451 14.6301 28.7296 13.407L32.0028 10.67C32.3138 10.4705 32.6957 10.412 33.0524 10.5111C33.4078 10.6104 33.705 10.8561 33.8667 11.1834C33.9684 11.3904 34.1525 11.5504 34.3721 11.6224C34.5905 11.6941 34.8331 11.6748 35.0344 11.571C35.6992 11.2319 36.4816 11.2508 37.1277 11.6211C37.7994 12.0058 38.2179 12.7239 38.22 13.4934C38.22 13.739 38.3267 13.9729 38.5128 14.1351C38.6995 14.2978 38.9482 14.373 39.1937 14.341C39.597 14.2891 39.992 14.4215 40.277 14.7045C40.5602 14.9855 40.6944 15.3737 40.6451 15.772C40.6157 16.0159 40.6928 16.2608 40.8567 16.444C41.0195 16.6261 41.2537 16.7305 41.4923 16.7304C42.2642 16.7377 42.9827 17.1531 43.3676 17.8149C43.755 18.4804 43.7558 19.3098 43.3687 19.9813C43.247 20.1942 43.2231 20.4492 43.3034 20.6808C43.384 20.9137 43.5618 21.1013 43.7919 21.1957C44.1689 21.3502 44.445 21.6618 44.55 22.0513C44.5915 22.2046 44.6034 22.3613 44.5872 22.5156H28.4507C29.3799 21.2162 29.5915 19.6317 28.9613 18.4633ZM25 31.3503C20.7297 31.3503 17.213 28.0868 16.8483 23.9406H33.1516C32.7871 28.0868 29.2703 31.3503 25 31.3503Z" fill="#EFC101"/>
</svg>
