<svg width="34" height="44" viewBox="0 0 34 44" fill="none" xmlns="http://www.w3.org/2000/svg">
<path d="M33.7692 39.1529C33.5698 38.8736 33.2471 38.7069 32.9061 38.7069H32.1992V17.3292C32.1992 16.9733 31.9135 16.6847 31.5608 16.6847C31.2082 16.6847 30.9225 16.9733 30.9225 17.3292V38.7068H30.0047C30.0048 38.628 30.0021 38.5492 29.9967 38.4704C29.8832 36.8076 28.5008 35.4557 26.8496 35.3926C26.174 35.3665 25.5169 35.5471 24.9507 35.9142C24.8247 35.996 24.6546 35.9957 24.5276 35.9135C23.9994 35.5711 23.3871 35.3902 22.7569 35.3902C22.1268 35.3902 21.5145 35.5711 20.9862 35.9135C20.8594 35.9956 20.6889 35.9957 20.5621 35.9135C20.2157 35.6891 19.8314 35.5335 19.43 35.4533V33.3226H22.054C23.0096 33.3226 23.806 32.63 23.9478 31.6759L26.9872 11.2156C27.1068 10.4107 26.8738 9.59535 26.3477 8.97875C25.8217 8.36206 25.0579 8.00834 24.2518 8.00834H19.43V3.95845H30.9224V14.3214C30.9224 14.6774 31.2081 14.9659 31.5607 14.9659C31.9133 14.9659 32.199 14.6774 32.199 14.3214V3.95845H32.4573C33.044 3.95845 33.5212 3.4766 33.5212 2.88423V1.07422C33.5212 0.481852 33.044 0 32.4573 0H2.48191C1.89525 0 1.41804 0.481852 1.41804 1.07422V2.88423C1.41804 3.4766 1.89525 3.95845 2.48191 3.95845H2.7403V38.7068H2.03338C1.69235 38.7068 1.3697 38.8735 1.17029 39.1529C0.970875 39.4322 0.916235 39.794 1.02407 40.1207L1.96529 42.9716C2.1682 43.5867 2.73605 44 3.3782 44H31.5613C32.2033 44 32.7713 43.5867 32.9743 42.9717L33.9155 40.1207C34.0231 39.794 33.9686 39.4322 33.7692 39.1529ZM19.8727 36.9982C20.4204 37.3532 21.128 37.3532 21.676 36.9982C21.9981 36.7895 22.372 36.6792 22.7571 36.6792C23.1422 36.6792 23.5161 36.7895 23.8383 36.9982C24.3862 37.3533 25.0939 37.3535 25.6409 36.9987C25.9861 36.7748 26.3865 36.6647 26.8014 36.6806C27.8097 36.7192 28.6538 37.5443 28.7231 38.559C28.7265 38.6084 28.7281 38.6576 28.7281 38.7067H19.4302V36.7841C19.5853 36.8368 19.734 36.9084 19.8727 36.9982ZM18.1535 38.7068H16.7858V33.3225H18.1535V38.7068ZM22.0542 32.0335H12.8852C12.5666 32.0335 12.3012 31.8026 12.2539 31.4846L11.3373 25.314H18.791C19.1435 25.314 19.4293 25.0254 19.4293 24.6695C19.4293 24.3135 19.1435 24.0249 18.791 24.0249H11.1458L10.3459 18.6401H21.4346C21.7872 18.6401 22.0729 18.3515 22.0729 17.9956C22.0729 17.6396 21.7872 17.351 21.4346 17.351H10.1544L9.74464 14.593C9.94286 14.62 10.1658 14.6362 10.4196 14.6362C11.4468 14.6362 11.9848 14.3738 12.4595 14.1424C12.8784 13.9381 13.2092 13.7768 13.9443 13.7768C14.6795 13.7768 15.0103 13.9381 15.4292 14.1424C15.9039 14.3738 16.4419 14.6362 17.4692 14.6362C18.4965 14.6362 19.0345 14.3738 19.5092 14.1424C19.928 13.9381 20.2588 13.7768 20.994 13.7768C21.7292 13.7768 22.0601 13.9381 22.4791 14.1424C22.9537 14.3738 23.4918 14.6362 24.5192 14.6362C24.7733 14.6362 24.9964 14.62 25.1948 14.5929L24.1902 21.3557H16.1475C15.795 21.3557 15.5092 21.6443 15.5092 22.0003C15.5092 22.3562 15.795 22.6448 16.1475 22.6448H23.9987L23.1988 28.0289H13.5044C13.1518 28.0289 12.866 28.3175 12.866 28.6735C12.866 29.0294 13.1518 29.318 13.5044 29.318H23.0073L22.6855 31.4845C22.6382 31.8026 22.3728 32.0335 22.0542 32.0335ZM25.3805 9.81991C25.6638 10.152 25.7893 10.591 25.7249 11.0244L25.3964 13.2358C25.1761 13.3009 24.9014 13.3472 24.5192 13.3472C23.784 13.3472 23.4531 13.1859 23.0341 12.9816C22.5595 12.7502 22.0214 12.4878 20.994 12.4878C19.9667 12.4878 19.4287 12.7502 18.954 12.9816C18.5352 13.1859 18.2044 13.3472 17.4692 13.3472C16.734 13.3472 16.4032 13.1859 15.9843 12.9816C15.5095 12.7502 14.9716 12.4878 13.9442 12.4878C12.9169 12.4878 12.379 12.7502 11.9042 12.9816C11.4854 13.1859 11.1546 13.3472 10.4195 13.3472C10.0377 13.3472 9.76311 13.301 9.54293 13.236L9.21441 11.0245C9.15007 10.5911 9.27552 10.1521 9.55876 9.81999C9.84201 9.48793 10.2533 9.29749 10.6874 9.29749H24.2521C24.686 9.29741 25.0974 9.48784 25.3805 9.81991ZM18.1535 8.00834H16.7858V3.95845H18.1535V8.00834ZM4.01686 3.95845H6.71143C7.06395 3.95845 7.34975 3.66988 7.34975 3.31392C7.34975 2.95797 7.06395 2.66939 6.71143 2.66939H2.69468V1.28906H32.2448V2.66939H9.69034C9.33782 2.66939 9.05202 2.95797 9.05202 3.31392C9.05202 3.66988 9.33782 3.95845 9.69034 3.95845H15.5093V8.00826H10.6875C9.88141 8.00826 9.11756 8.36198 8.59158 8.97866C8.0656 9.59535 7.83249 10.4106 7.95207 11.2155L10.9915 31.6758C11.1333 32.63 11.9297 33.3225 12.8853 33.3225H15.5093V35.4533C15.1079 35.5334 14.7235 35.6891 14.3772 35.9135C14.2504 35.9956 14.08 35.9957 13.9531 35.9135C13.4247 35.5712 12.8125 35.3902 12.1823 35.3902C11.5522 35.3902 10.94 35.5711 10.4118 35.9134C10.2849 35.9957 10.1148 35.996 9.98865 35.9142C9.42259 35.5471 8.76529 35.3661 8.08986 35.3926C6.43873 35.4557 5.05639 36.8077 4.94277 38.4704C4.9374 38.5492 4.93476 38.6281 4.93485 38.7068H4.01686V3.95845ZM31.7631 42.564C31.7341 42.6519 31.653 42.7109 31.5613 42.7109H3.3782C3.28645 42.7109 3.20534 42.6519 3.17632 42.5641L2.32846 39.9959H9.69026C10.0428 39.9959 10.3286 39.7073 10.3286 39.3514C10.3286 38.9954 10.0428 38.7069 9.69026 38.7069H6.21141C6.21132 38.6578 6.21294 38.6085 6.21634 38.5591C6.28562 37.5444 7.12982 36.7194 8.1382 36.6808C8.55234 36.665 8.95338 36.775 9.29867 36.9988C9.84567 37.3536 10.5533 37.3534 11.1013 36.9983C11.4234 36.7896 11.7972 36.6792 12.1823 36.6792C12.5675 36.6792 12.9414 36.7896 13.2635 36.9982C13.8112 37.3532 14.519 37.3532 15.0668 36.9982C15.2054 36.9084 15.3542 36.8367 15.5094 36.7842V38.7068H12.6693C12.3167 38.7068 12.0309 38.9953 12.0309 39.3513C12.0309 39.7072 12.3167 39.9958 12.6693 39.9958H32.611L31.7631 42.564Z" fill="#DD1015"/>
</svg>
