<svg width="59" height="24" viewBox="0 0 59 24" fill="none" xmlns="http://www.w3.org/2000/svg">
<path d="M58.7966 11.1425C58.7966 8.90279 57.3213 6.91945 55.224 6.24657C54.5344 2.69233 51.4 0 47.6471 0H47.2656C46.7938 0 46.4115 0.382275 46.4115 0.854056C46.4115 1.32584 46.7938 1.70811 47.2656 1.70811H47.6471C50.9617 1.70811 53.6585 4.40488 53.6585 7.71953C53.6585 8.19051 53.2754 8.57358 52.8044 8.57358H6.49206C6.02107 8.57358 5.638 8.19051 5.638 7.71953C5.638 4.40488 8.33477 1.70811 11.6494 1.70811H18.5054V4.28338C18.5054 5.69974 19.6578 6.85226 21.0743 6.85226C22.4908 6.85226 23.6432 5.69986 23.6432 4.28338V1.70811H27.0796V4.28338C27.0796 5.69974 28.232 6.85226 29.6485 6.85226C31.065 6.85226 32.2174 5.69986 32.2174 4.28338V1.70811H35.6537V4.28338C35.6537 5.69974 36.8061 6.85226 38.2226 6.85226C39.6391 6.85226 40.7915 5.69986 40.7915 4.28338V1.70811H43.2805C43.7522 1.70811 44.1345 1.32584 44.1345 0.854056C44.1345 0.382275 43.7522 0 43.2805 0H11.6494C7.89647 0 4.76208 2.69244 4.07246 6.24668C1.97285 6.91922 0.5 8.89539 0.5 11.1425C0.5 13.3464 1.91295 15.2862 3.94538 15.9962C3.93592 16.0889 3.92989 16.1835 3.92989 16.2805C3.92989 20.5371 7.3928 24 11.6494 24H33.5553C34.0271 24 34.4093 23.6177 34.4093 23.1459C34.4093 22.6742 34.0271 22.2919 33.5553 22.2919H11.6494C8.47028 22.2919 5.86119 19.8108 5.65303 16.6834C5.77021 16.7808 5.88078 16.889 5.98133 17.009C7.41455 18.7244 9.85123 19.3503 11.9676 18.4327C13.8539 19.245 16.1145 18.8775 17.6417 17.3501L18.337 16.6549C21.5124 18.3804 25.5238 18.5192 28.963 16.649C30.1185 17.4987 31.5616 17.8289 32.9838 17.5529C33.4626 17.4604 33.9238 17.4822 34.3174 17.6154C34.8324 17.7899 35.3991 17.871 35.9976 17.8284C38.0276 19.3521 40.9036 19.161 42.7147 17.3501L44.1656 15.8992C44.571 16.0816 44.9179 16.3453 45.2375 16.7758C47.2229 19.4503 51.1791 19.5659 53.3149 17.0097C53.4156 16.8894 53.5264 16.7812 53.6437 16.6835C53.4354 19.8108 50.8264 22.2919 47.6473 22.2919H37.541C37.0692 22.2919 36.6869 22.6742 36.6869 23.1459C36.6869 23.6177 37.0692 24 37.541 24H47.6473C51.9039 24 55.3668 20.5371 55.3668 16.2805C55.3668 16.1841 55.3606 16.0897 55.3507 15.9964C57.3837 15.2863 58.7966 13.3465 58.7966 11.1425ZM21.935 4.28338C21.935 4.758 21.5488 5.14415 21.0742 5.14415C20.5996 5.14415 20.2134 4.758 20.2134 4.28338V1.70811H21.9349L21.935 4.28338ZM30.509 4.28338C30.509 4.758 30.1229 5.14415 29.6482 5.14415C29.1736 5.14415 28.7875 4.758 28.7875 4.28338V1.70811H30.5089L30.509 4.28338ZM39.0831 4.28338C39.0831 4.758 38.6969 5.14415 38.2223 5.14415C37.7477 5.14415 37.3615 4.758 37.3615 4.28338V1.70811H39.083L39.0831 4.28338ZM23.5432 12.8274C22.0401 12.8858 20.3119 12.1287 19.335 10.9859L21.1356 10.2816H22.5474L23.5432 12.8274ZM7.29157 15.9133C6.68234 15.1856 5.85687 14.6869 4.9666 14.5092C3.36826 14.191 2.20811 12.7751 2.20811 11.1425C2.20811 9.8771 2.90696 8.74007 3.96599 8.14565C4.16959 9.35624 5.22452 10.2817 6.49206 10.2817H10.1802C8.43361 12.226 8.43111 15.1916 10.1725 17.1391C9.10046 17.2129 8.01626 16.7807 7.29157 15.9133ZM17.3296 13.8628C16.9791 13.5472 16.4392 13.5749 16.1233 13.9254C15.8075 14.2758 15.8357 14.8158 16.1859 15.1317C16.4086 15.3324 16.6377 15.523 16.8729 15.7035L16.434 16.1423C15.0957 17.4808 12.9176 17.4807 11.5792 16.1422C10.2407 14.8038 10.2407 12.626 11.579 11.2875L12.5851 10.2816H13.0481C13.2038 10.7626 13.3884 11.2295 13.6029 11.674C13.7502 11.9794 14.0551 12.1573 14.3727 12.1573C14.9949 12.1573 15.4168 11.5031 15.1414 10.932L14.8615 10.2816H17.7828C17.4917 10.9219 17.6296 11.6198 18.0367 12.0962C19.3523 13.6344 21.5951 14.6139 23.6097 14.5341C24.7822 14.4887 25.5618 13.2973 25.1338 12.2047L24.3816 10.2816H26.1275C26.2204 10.4427 26.322 10.5994 26.4324 10.7496C26.7394 11.169 26.8948 11.709 26.8696 12.2697C26.8188 13.3873 27.1253 14.4627 27.7286 15.3628C24.2908 17.0207 20.2169 16.4651 17.3296 13.8628ZM32.6595 15.876C30.4862 16.2972 28.4741 14.584 28.5759 12.3468C28.6085 11.6193 28.4555 10.9057 28.1407 10.2817H35.2535C33.9123 11.7782 33.5336 13.9697 34.4171 15.8778C33.8615 15.7619 33.263 15.7594 32.6595 15.876ZM41.5068 16.1423C40.2315 17.4177 38.1723 17.4861 36.8162 16.296C35.3228 14.9951 35.2482 12.6914 36.6521 11.2878L37.658 10.2818H42.0319C41.3127 11.8387 41.6558 13.6613 42.7668 14.8824L41.5068 16.1423ZM54.3296 14.5093C53.4399 14.687 52.6144 15.1856 52.0046 15.914C50.5764 17.6232 47.935 17.544 46.609 15.7578C46.1425 15.1293 45.5516 14.6454 44.8994 14.3578C43.3333 13.6691 42.8003 11.6064 44.0803 10.2817H52.8046C54.0719 10.2817 55.1267 9.35658 55.3305 8.14633C56.3887 8.742 57.0885 9.88154 57.0885 11.1426C57.0885 12.7751 55.9285 14.191 54.3296 14.5093Z" fill="#22935F"/>
</svg>
